<?xml version="1.0" encoding="UTF-8" standalone="no"?>
<!-- Created with Inkscape (http://www.inkscape.org/) -->

<svg
   xmlns:dc="http://purl.org/dc/elements/1.1/"
   xmlns:cc="http://creativecommons.org/ns#"
   xmlns:rdf="http://www.w3.org/1999/02/22-rdf-syntax-ns#"
   xmlns:svg="http://www.w3.org/2000/svg"
   xmlns="http://www.w3.org/2000/svg"
   xmlns:sodipodi="http://sodipodi.sourceforge.net/DTD/sodipodi-0.dtd"
   xmlns:inkscape="http://www.inkscape.org/namespaces/inkscape"
   width="22"
   height="22"
   id="svg2"
   version="1.1"
   inkscape:version="0.49 r12742"
   viewBox="0 0 22 22"
   sodipodi:docname="document-save-as.svg">
  <defs
     id="defs4" />
  <sodipodi:namedview
     id="base"
     pagecolor="#ffffff"
     bordercolor="#666666"
     borderopacity="1.0"
     inkscape:pageopacity="0.0"
     inkscape:pageshadow="2"
     inkscape:zoom="15.839192"
     inkscape:cx="-2.115052"
     inkscape:cy="15.471499"
     inkscape:document-units="px"
     inkscape:current-layer="layer1"
     showgrid="true"
     inkscape:showpageshadow="false"
     borderlayer="true"
     inkscape:window-width="1366"
     inkscape:window-height="718"
     inkscape:window-x="-2"
     inkscape:window-y="23"
     inkscape:window-maximized="1"
     units="px"
     showguides="true">
    <sodipodi:guide
       position="2,20.000017"
       orientation="18,0"
       id="guide4085" />
    <sodipodi:guide
       position="2,2.0000174"
       orientation="0,18"
       id="guide4087" />
    <sodipodi:guide
       position="20,2.0000174"
       orientation="-18,0"
       id="guide4089" />
    <sodipodi:guide
       position="20,20.000017"
       orientation="0,-18"
       id="guide4091" />
    <sodipodi:guide
       position="3,19.000017"
       orientation="16,0"
       id="guide4093" />
    <sodipodi:guide
       position="3,3.0000174"
       orientation="0,16"
       id="guide4095" />
    <sodipodi:guide
       position="19,3.0000174"
       orientation="-16,0"
       id="guide4097" />
    <sodipodi:guide
       position="19,19.000017"
       orientation="0,-16"
       id="guide4099" />
    <inkscape:grid
       type="xygrid"
       id="grid4101" />
    <sodipodi:guide
       position="15,19.000017"
       orientation="4,0"
       id="guide4088" />
    <sodipodi:guide
       position="15,15.000017"
       orientation="0,4"
       id="guide4090" />
    <sodipodi:guide
       position="19,15.000017"
       orientation="-4,0"
       id="guide4092" />
    <sodipodi:guide
       position="19,19.000017"
       orientation="0,-4"
       id="guide4094" />
  </sodipodi:namedview>
  <metadata
     id="metadata7">
    <rdf:RDF>
      <cc:Work
         rdf:about="">
        <dc:format>image/svg+xml</dc:format>
        <dc:type
           rdf:resource="http://purl.org/dc/dcmitype/StillImage" />
        <dc:title />
      </cc:Work>
    </rdf:RDF>
  </metadata>
  <g
     inkscape:label="Capa 1"
     inkscape:groupmode="layer"
     id="layer1"
     transform="translate(0,-1030.3622)">
    <circle
       style="fill:#4d4d4d;fill-opacity:1;stroke:none"
       id="path4089"
       cx="21"
       cy="1035.3622"
       r="1"
       d="m 22,1035.3622 a 1,1 0 0 1 -1,1 1,1 0 0 1 -1,-1 1,1 0 0 1 1,-1 1,1 0 0 1 1,1 z" />
    <circle
       r="1"
       cy="1041.3622"
       cx="21"
       id="circle4091"
       style="fill:#4d4d4d;fill-opacity:1;stroke:none"
       d="m 22,1041.3622 a 1,1 0 0 1 -1,1 1,1 0 0 1 -1,-1 1,1 0 0 1 1,-1 1,1 0 0 1 1,1 z" />
    <circle
       style="fill:#4d4d4d;fill-opacity:1;stroke:none"
       id="circle4093"
       cx="21"
       cy="1047.3622"
       r="1"
       d="m 22,1047.3622 a 1,1 0 0 1 -1,1 1,1 0 0 1 -1,-1 1,1 0 0 1 1,-1 1,1 0 0 1 1,1 z" />
    <path
       style="fill:#4d4d4d;fill-opacity:1;stroke:none"
       d="M 0 2.9980469 L 0 3.0019531 L 0 4.0019531 L 0 19.001953 L 1 19.001953 L 16 19.001953 L 16 18.001953 L 16 7.0019531 L 16 6.3027344 L 15.992188 6.3027344 L 16 6.2910156 L 12.707031 2.9980469 L 12.699219 3.0097656 L 12.699219 2.9980469 L 12 2.9980469 L 0 2.9980469 z M 5 4 L 9 4 L 9 4.0039062 L 11 4.0039062 L 11 8.0039062 L 9 8.0039062 L 9 8 L 5 8 L 5 4 z M 1 4.0039062 L 4 4.0039062 L 4 8.0039062 L 4 9.0039062 L 12 9.0039062 L 12 8.0039062 L 12 4.0039062 L 12.292969 4.0039062 L 15 6.7109375 L 15 7.0039062 L 15 18.003906 L 13 18.003906 L 13 11.003906 L 12 11.003906 L 4 11.003906 L 3 11.003906 L 3 18.003906 L 1 18.003906 L 1 4.0039062 z M 4 12.003906 L 12 12.003906 L 12 18.003906 L 4 18.003906 L 4 12.003906 z "
       transform="translate(0,1030.3622)"
       id="rect4126-4" />
    <rect
       style="fill:#4d4d4d;fill-opacity:1;stroke:none"
       id="rect4076"
       width="2"
       height="4"
       x="9"
       y="1034.3622" />
  </g>
</svg>
