<?xml version="1.0" encoding="UTF-8" standalone="no"?>
<!-- Created with Inkscape (http://www.inkscape.org/) -->

<svg
   xmlns:dc="http://purl.org/dc/elements/1.1/"
   xmlns:cc="http://creativecommons.org/ns#"
   xmlns:rdf="http://www.w3.org/1999/02/22-rdf-syntax-ns#"
   xmlns:svg="http://www.w3.org/2000/svg"
   xmlns="http://www.w3.org/2000/svg"
   xmlns:xlink="http://www.w3.org/1999/xlink"
   xmlns:sodipodi="http://sodipodi.sourceforge.net/DTD/sodipodi-0.dtd"
   xmlns:inkscape="http://www.inkscape.org/namespaces/inkscape"
   width="48"
   height="48"
   id="svg5453"
   version="1.1"
   inkscape:version="0.48+devel r"
   sodipodi:docname="accessories-text-editor.svg">
  <defs
     id="defs5455">
    <linearGradient
       inkscape:collect="always"
       id="linearGradient6165">
      <stop
         style="stop-color:#bdb49e;stop-opacity:0.25882354"
         offset="0"
         id="stop6167" />
      <stop
         style="stop-color:#bdb49e;stop-opacity:0;"
         offset="1"
         id="stop6169" />
    </linearGradient>
    <linearGradient
       inkscape:collect="always"
       id="linearGradient4303">
      <stop
         style="stop-color:#977a5c;stop-opacity:1"
         offset="0"
         id="stop4305" />
      <stop
         style="stop-color:#9d8062;stop-opacity:1"
         offset="1"
         id="stop4307" />
    </linearGradient>
    <linearGradient
       inkscape:collect="always"
       id="linearGradient4273">
      <stop
         style="stop-color:#e3dfd6;stop-opacity:1"
         offset="0"
         id="stop4275" />
      <stop
         style="stop-color:#f4f1e8;stop-opacity:1"
         offset="1"
         id="stop4277" />
    </linearGradient>
    <linearGradient
       inkscape:collect="always"
       id="linearGradient4152">
      <stop
         style="stop-color:#bd8d48;stop-opacity:1"
         offset="0"
         id="stop4154" />
      <stop
         style="stop-color:#e8b971;stop-opacity:1"
         offset="1"
         id="stop4156" />
    </linearGradient>
    <linearGradient
       inkscape:collect="always"
       xlink:href="#linearGradient4152"
       id="linearGradient4158"
       x1="409.57144"
       y1="543.79797"
       x2="409.57144"
       y2="503.798"
       gradientUnits="userSpaceOnUse"
       gradientTransform="matrix(1.1250015,0,0,1,-51.071966,0)" />
    <linearGradient
       inkscape:collect="always"
       id="linearGradient4410">
      <stop
         style="stop-color:#383e51;stop-opacity:1"
         offset="0"
         id="stop4412" />
      <stop
         style="stop-color:#655c6f;stop-opacity:0"
         offset="1"
         id="stop4414" />
    </linearGradient>
    <linearGradient
       inkscape:collect="always"
       xlink:href="#linearGradient4273"
       id="linearGradient4279"
       x1="408.57144"
       y1="541.79797"
       x2="408.57144"
       y2="505.798"
       gradientUnits="userSpaceOnUse" />
    <linearGradient
       inkscape:collect="always"
       xlink:href="#linearGradient4410"
       id="linearGradient4299"
       x1="414.57144"
       y1="531.79797"
       x2="426.57144"
       y2="543.79797"
       gradientUnits="userSpaceOnUse" />
    <linearGradient
       inkscape:collect="always"
       xlink:href="#linearGradient4303"
       id="linearGradient4309"
       x1="409.57144"
       y1="542.79797"
       x2="409.57144"
       y2="504.798"
       gradientUnits="userSpaceOnUse" />
    <linearGradient
       inkscape:collect="always"
       xlink:href="#linearGradient6165"
       id="linearGradient6171"
       x1="413.57144"
       y1="528.79797"
       x2="418.57144"
       y2="533.79797"
       gradientUnits="userSpaceOnUse" />
  </defs>
  <sodipodi:namedview
     id="base"
     pagecolor="#ffffff"
     bordercolor="#666666"
     borderopacity="1.0"
     inkscape:pageopacity="0"
     inkscape:pageshadow="2"
     inkscape:zoom="4"
     inkscape:cx="81.957635"
     inkscape:cy="32.656798"
     inkscape:document-units="px"
     inkscape:current-layer="layer1"
     showgrid="true"
     fit-margin-top="0"
     fit-margin-left="0"
     fit-margin-right="0"
     fit-margin-bottom="0"
     inkscape:window-width="1366"
     inkscape:window-height="718"
     inkscape:window-x="-2"
     inkscape:window-y="23"
     inkscape:window-maximized="1"
     inkscape:showpageshadow="false"
     borderlayer="true"
     showguides="true">
    <inkscape:grid
       type="xygrid"
       id="grid4063" />
    <sodipodi:guide
       position="1.1650391e-05,47.999996"
       orientation="4,0"
       id="guide4146" />
    <sodipodi:guide
       position="1.1650391e-05,43.999996"
       orientation="0,48"
       id="guide4148" />
    <sodipodi:guide
       position="48.000012,43.999996"
       orientation="-4,0"
       id="guide4150" />
    <sodipodi:guide
       position="48.000012,47.999996"
       orientation="0,-48"
       id="guide4152" />
    <sodipodi:guide
       position="1.1650391e-05,4.0000264"
       orientation="4,0"
       id="guide4154" />
    <sodipodi:guide
       position="1.1650391e-05,2.6367188e-05"
       orientation="0,48"
       id="guide4156" />
    <sodipodi:guide
       position="48.000012,2.6367188e-05"
       orientation="-4,0"
       id="guide4158" />
    <sodipodi:guide
       position="48.000012,4.0000264"
       orientation="0,-48"
       id="guide4160" />
    <sodipodi:guide
       position="48.000012,48.000026"
       orientation="0,-4"
       id="guide4162" />
    <sodipodi:guide
       position="44.000012,48.000026"
       orientation="48,0"
       id="guide4164" />
    <sodipodi:guide
       position="44.000012,2.6367188e-05"
       orientation="0,4"
       id="guide4166" />
    <sodipodi:guide
       position="48.000012,2.6367188e-05"
       orientation="-48,0"
       id="guide4168" />
    <sodipodi:guide
       position="4.0000422,48.000026"
       orientation="0,-4"
       id="guide4170" />
    <sodipodi:guide
       position="4.2167969e-05,48.000026"
       orientation="48,0"
       id="guide4172" />
    <sodipodi:guide
       position="4.2167969e-05,2.6367188e-05"
       orientation="0,4"
       id="guide4174" />
    <sodipodi:guide
       position="4.0000422,2.6367188e-05"
       orientation="-48,0"
       id="guide4176" />
  </sodipodi:namedview>
  <metadata
     id="metadata5458">
    <rdf:RDF>
      <cc:Work
         rdf:about="">
        <dc:format>image/svg+xml</dc:format>
        <dc:type
           rdf:resource="http://purl.org/dc/dcmitype/StillImage" />
        <dc:title />
      </cc:Work>
    </rdf:RDF>
  </metadata>
  <g
     inkscape:label="Capa 1"
     inkscape:groupmode="layer"
     id="layer1"
     transform="translate(-384.57143,-499.798)">
    <rect
       style="opacity:1;fill:url(#linearGradient4158);fill-opacity:1;stroke:none"
       id="rect4139"
       width="35.999992"
       height="39.999969"
       x="390.57144"
       y="503.798"
       ry="0" />
    <rect
       style="opacity:0.5;fill:url(#linearGradient4309);fill-opacity:1;stroke:none"
       id="rect4250"
       width="34"
       height="37.999996"
       x="391.57144"
       y="504.798" />
    <path
       style="fill:#ffffff;fill-rule:evenodd;stroke:none;stroke-width:1px;stroke-linecap:butt;stroke-linejoin:miter;stroke-opacity:1;fill-opacity:0.05882353"
       d="m 390.57143,503.798 20,2 14,4 2,-6 z"
       id="path6173"
       inkscape:connector-curvature="0" />
    <rect
       style="opacity:1;fill:#aa7f41;fill-opacity:1;stroke:none"
       id="rect4171"
       width="35.999992"
       height="0.9999736"
       x="390.57144"
       y="542.79797" />
    <rect
       style="opacity:1;fill:url(#linearGradient4279);fill-opacity:1;stroke:none"
       id="rect4242"
       width="32"
       height="35.999973"
       x="392.57144"
       y="505.798" />
    <path
       style="font-style:normal;font-variant:normal;font-weight:normal;font-stretch:normal;font-size:medium;line-height:125%;font-family:BLOKK;-inkscape-font-specification:BLOKK;letter-spacing:0px;word-spacing:0px;fill:#bdb49e;fill-opacity:1;stroke:none;stroke-width:1px;stroke-linecap:butt;stroke-linejoin:miter;stroke-opacity:1"
       d="m 394.25893,511.673 0,0.70312 0.5625,0 0.5625,0 0.5625,0 0.56445,0 0.5625,0 0,-0.70312 -0.5625,0 -0.56445,0 -0.5625,0 -0.5625,0 -0.5625,0 z m 3.0957,0 0,0.70312 0.5625,0 0.5625,0 0.5625,0 0.5625,0 0.5625,0 0,-0.70312 -0.5625,0 -0.5625,0 -0.5625,0 -0.5625,0 -0.5625,0 z m 3.09375,0 0,0.70312 0.56446,0 0.5625,0 0.5625,0 0.5625,0 0.5625,0 0,-0.70312 -0.5625,0 -0.5625,0 -0.5625,0 -0.5625,0 -0.56446,0 z m -5.9082,1.40625 0,0.70312 0.5625,0 0.5625,0 0.5625,0 0,-0.70312 -0.5625,0 -0.5625,0 -0.5625,0 z m 1.9707,0 0,0.70312 0.5625,0 0.5625,0 0.5625,0 0.5625,0 0.5625,0 0,-0.70312 -0.5625,0 -0.5625,0 -0.5625,0 -0.5625,0 -0.5625,0 z m 3.09375,0 0,0.70312 0.5625,0 0.5625,0 0.56446,0 0.5625,0 0.5625,0 0.5625,0 0.5625,0 0.5625,0 0.5625,0 0.5625,0 0.56445,0 0,-0.70312 -0.56445,0 -0.5625,0 -0.5625,0 -0.5625,0 -0.5625,0 -0.5625,0 -0.5625,0 -0.5625,0 -0.56446,0 -0.5625,0 -0.5625,0 z m 6.47266,0 0,0.70312 0.5625,0 0.5625,0 0.5625,0 0.5625,0 0.5625,0 0.5625,0 0.56445,0 0.5625,0 0.5625,0 0.5625,0 0,-0.70312 -0.5625,0 -0.5625,0 -0.5625,0 -0.56445,0 -0.5625,0 -0.5625,0 -0.5625,0 -0.5625,0 -0.5625,0 -0.5625,0 z m 5.9082,0 0,0.70312 0.5625,0 0.5625,0 0.5625,0 0.5625,0 0.56446,0 0,-0.70312 -0.56446,0 -0.5625,0 -0.5625,0 -0.5625,0 -0.5625,0 z m 3.09571,0 0,0.70312 0.5625,0 0.5625,0 0.5625,0 0.5625,0 0.5625,0 0.5625,0 0,-0.70312 -0.5625,0 -0.5625,0 -0.5625,0 -0.5625,0 -0.5625,0 -0.5625,0 z m 3.65625,0 0,0.70312 0.56445,0 0.5625,0 0.5625,0 0.5625,0 0,-0.70312 -0.5625,0 -0.5625,0 -0.5625,0 -0.56445,0 z m -24.19727,1.4082 0,0.70313 0.5625,0 0.5625,0 0.5625,0 0.56445,0 0.5625,0 0.5625,0 0.5625,0 0,-0.70313 -0.5625,0 -0.5625,0 -0.5625,0 -0.56445,0 -0.5625,0 -0.5625,0 -0.5625,0 z m 4.2207,0 0,0.70313 0.5625,0 0.5625,0 0.5625,0 0.56446,0 0.5625,0 0.5625,0 0.5625,0 0.5625,0 0.5625,0 0.5625,0 0,-0.70313 -0.5625,0 -0.5625,0 -0.5625,0 -0.5625,0 -0.5625,0 -0.5625,0 -0.56446,0 -0.5625,0 -0.5625,0 -0.5625,0 z m 5.90821,0 0,0.70313 0.5625,0 0.56445,0 0,-0.70313 -0.56445,0 -0.5625,0 z m 1.4082,0 0,0.70313 0.5625,0 0.5625,0 0.5625,0 0.5625,0 0.5625,0 0.5625,0 0.56445,0 0.5625,0 0,-0.70313 -0.5625,0 -0.56445,0 -0.5625,0 -0.5625,0 -0.5625,0 -0.5625,0 -0.5625,0 -0.5625,0 z m 4.7832,0 0,0.70313 0.5625,0 0.5625,0 0.5625,0 0,-0.70313 -0.5625,0 -0.5625,0 -0.5625,0 z m 1.96875,0 0,0.70313 0.5625,0 0.5625,0 0.56446,0 0.5625,0 0.5625,0 0.5625,0 0.5625,0 0.5625,0 0,-0.70313 -0.5625,0 -0.5625,0 -0.5625,0 -0.5625,0 -0.5625,0 -0.56446,0 -0.5625,0 -0.5625,0 z m 4.78321,0 0,0.70313 0.5625,0 0.5625,0 0,-0.70313 -0.5625,0 -0.5625,0 z m 1.4082,0 0,0.70313 0.5625,0 0.5625,0 0.5625,0 0.5625,0 0.5625,0 0,-0.70313 -0.5625,0 -0.5625,0 -0.5625,0 -0.5625,0 -0.5625,0 z m -24.76172,1.40625 0,0.70313 0.5625,0 0.5625,0 0.5625,0 0.56445,0 0.5625,0 0.5625,0 0.5625,0 0,-0.70313 -0.5625,0 -0.5625,0 -0.5625,0 -0.56445,0 -0.5625,0 -0.5625,0 -0.5625,0 z m 4.2207,0 0,0.70313 0.5625,0 0.5625,0 0,-0.70313 -0.5625,0 -0.5625,0 z m 1.40625,0 0,0.70313 0.5625,0 0.56446,0 0.5625,0 0.5625,0 0.5625,0 0.5625,0 0.5625,0 0.5625,0 0.5625,0 0.56445,0 0.5625,0 0,-0.70313 -0.5625,0 -0.56445,0 -0.5625,0 -0.5625,0 -0.5625,0 -0.5625,0 -0.5625,0 -0.5625,0 -0.5625,0 -0.56446,0 -0.5625,0 z m 6.47266,0 0,0.70313 0.5625,0 0.5625,0 0.5625,0 0.5625,0 0.5625,0 0.5625,0 0.56445,0 0,-0.70313 -0.56445,0 -0.5625,0 -0.5625,0 -0.5625,0 -0.5625,0 -0.5625,0 -0.5625,0 z m 4.2207,0 0,0.70313 0.5625,0 0.5625,0 0.5625,0 0,-0.70313 -0.5625,0 -0.5625,0 -0.5625,0 z m 1.96875,0 0,0.70313 0.5625,0 0.5625,0 0.5625,0 0.56446,0 0.5625,0 0.5625,0 0.5625,0 0.5625,0 0.5625,0 0.5625,0 0.5625,0 0,-0.70313 -0.5625,0 -0.5625,0 -0.5625,0 -0.5625,0 -0.5625,0 -0.5625,0 -0.5625,0 -0.56446,0 -0.5625,0 -0.5625,0 -0.5625,0 z m 6.47266,0 0,0.70313 0.5625,0 0.5625,0 0.5625,0 0.5625,0 0.5625,0 0.5625,0 0,-0.70313 -0.5625,0 -0.5625,0 -0.5625,0 -0.5625,0 -0.5625,0 -0.5625,0 z m -24.76172,3.91016 0,0.70508 0.5625,0 0.5625,0 0.5625,0 0.56445,0 0,-0.70508 -0.56445,0 -0.5625,0 -0.5625,0 -0.5625,0 z m 2.5332,0 0,0.70508 0.5625,0 0.5625,0 0.5625,0 0.5625,0 0.5625,0 0,-0.70508 -0.5625,0 -0.5625,0 -0.5625,0 -0.5625,0 -0.5625,0 z m 3.09375,0 0,0.70508 0.5625,0 0.56446,0 0.5625,0 0.5625,0 0.5625,0 0.5625,0 0.5625,0 0.5625,0 0.5625,0 0,-0.70508 -0.5625,0 -0.5625,0 -0.5625,0 -0.5625,0 -0.5625,0 -0.5625,0 -0.5625,0 -0.56446,0 -0.5625,0 z m 5.34571,0 0,0.70508 0.56445,0 0.5625,0 0.5625,0 0.5625,0 0.5625,0 0.5625,0 0,-0.70508 -0.5625,0 -0.5625,0 -0.5625,0 -0.5625,0 -0.5625,0 -0.56445,0 z m 3.6582,0 0,0.70508 0.5625,0 0.56445,0 0.5625,0 0.5625,0 0.5625,0 0,-0.70508 -0.5625,0 -0.5625,0 -0.5625,0 -0.56445,0 -0.5625,0 z m 3.0957,0 0,0.70508 0.5625,0 0.5625,0 0.5625,0 0.5625,0 0.56446,0 0,-0.70508 -0.56446,0 -0.5625,0 -0.5625,0 -0.5625,0 -0.5625,0 z m 3.09571,0 0,0.70508 0.5625,0 0.5625,0 0.5625,0 0.5625,0 0.5625,0 0,-0.70508 -0.5625,0 -0.5625,0 -0.5625,0 -0.5625,0 -0.5625,0 z m 3.09375,0 0,0.70508 0.5625,0 0.56445,0 0.5625,0 0.5625,0 0.5625,0 0.5625,0 0.5625,0 0,-0.70508 -0.5625,0 -0.5625,0 -0.5625,0 -0.5625,0 -0.5625,0 -0.56445,0 -0.5625,0 z m -23.63477,1.4082 0,0.70313 0.5625,0 0.5625,0 0,-0.70313 -0.5625,0 -0.5625,0 z m 1.40625,0 0,0.70313 0.56445,0 0.5625,0 0.5625,0 0.5625,0 0.5625,0 0.5625,0 0.5625,0 0.5625,0 0,-0.70313 -0.5625,0 -0.5625,0 -0.5625,0 -0.5625,0 -0.5625,0 -0.5625,0 -0.5625,0 -0.56445,0 z m 4.7832,0 0,0.70313 0.56446,0 0.5625,0 0.5625,0 0.5625,0 0.5625,0 0,-0.70313 -0.5625,0 -0.5625,0 -0.5625,0 -0.5625,0 -0.56446,0 z m 3.09571,0 0,0.70313 0.5625,0 0.5625,0 0.56445,0 0.5625,0 0.5625,0 0.5625,0 0,-0.70313 -0.5625,0 -0.5625,0 -0.5625,0 -0.56445,0 -0.5625,0 -0.5625,0 z m 3.6582,0 0,0.70313 0.5625,0 0.5625,0 0,-0.70313 -0.5625,0 -0.5625,0 z m 1.40625,0 0,0.70313 0.5625,0 0.56445,0 0.5625,0 0.5625,0 0.5625,0 0.5625,0 0.5625,0 0.5625,0 0.5625,0 0,-0.70313 -0.5625,0 -0.5625,0 -0.5625,0 -0.5625,0 -0.5625,0 -0.5625,0 -0.5625,0 -0.56445,0 -0.5625,0 z m 5.3457,0 0,0.70313 0.56446,0 0.5625,0 0.5625,0 0.5625,0 0.5625,0 0,-0.70313 -0.5625,0 -0.5625,0 -0.5625,0 -0.5625,0 -0.56446,0 z m 3.09571,0 0,0.70313 0.5625,0 0.5625,0 0.56445,0 0.5625,0 0.5625,0 0.5625,0 0.5625,0 0,-0.70313 -0.5625,0 -0.5625,0 -0.5625,0 -0.5625,0 -0.56445,0 -0.5625,0 -0.5625,0 z m -23.07227,1.40625 0,0.70313 0.5625,0 0.5625,0 0.5625,0 0.56445,0 0,-0.70313 -0.56445,0 -0.5625,0 -0.5625,0 -0.5625,0 z m 0.28125,4.61133 0,0.70313 0.5625,0 0.5625,0 0.5625,0 0.56445,0 0.5625,0 0.5625,0 0.5625,0 0.5625,0 0.5625,0 0.5625,0 0,-0.70313 -0.5625,0 -0.5625,0 -0.5625,0 -0.5625,0 -0.5625,0 -0.5625,0 -0.56445,0 -0.5625,0 -0.5625,0 -0.5625,0 z m 5.9082,0 0,0.70313 0.56446,0 0.5625,0 0.5625,0 0.5625,0 0,-0.70313 -0.5625,0 -0.5625,0 -0.5625,0 -0.56446,0 z m 2.53321,0 0,0.70313 0.5625,0 0.5625,0 0.5625,0 0.5625,0 0.56445,0 0,-0.70313 -0.56445,0 -0.5625,0 -0.5625,0 -0.5625,0 -0.5625,0 z m 3.0957,0 0,0.70313 0.5625,0 0.5625,0 0.5625,0 0.5625,0 0.5625,0 0.5625,0 0,-0.70313 -0.5625,0 -0.5625,0 -0.5625,0 -0.5625,0 -0.5625,0 -0.5625,0 z m 3.65625,0 0,0.70313 0.56445,0 0.5625,0 0,-0.70313 -0.5625,0 -0.56445,0 z m 1.4082,0 0,0.70313 0.5625,0 0.5625,0 0.5625,0 0.5625,0 0.5625,0 0.56446,0 0.5625,0 0.5625,0 0,-0.70313 -0.5625,0 -0.5625,0 -0.56446,0 -0.5625,0 -0.5625,0 -0.5625,0 -0.5625,0 -0.5625,0 z m 4.78321,0 0,0.70313 0.5625,0 0.5625,0 0.5625,0 0.5625,0 0,-0.70313 -0.5625,0 -0.5625,0 -0.5625,0 -0.5625,0 z m 2.53125,0 0,0.70313 0.56445,0 0.5625,0 0.5625,0 0.5625,0 0.5625,0 0.5625,0 0,-0.70313 -0.5625,0 -0.5625,0 -0.5625,0 -0.5625,0 -0.5625,0 -0.56445,0 z m 3.6582,0 0,0.70313 0.5625,0 0.5625,0 0,-0.70313 -0.5625,0 -0.5625,0 z m -27.85547,1.40625 0,0.70313 0.5625,0 0.5625,0 0.5625,0 0.56445,0 0.5625,0 0.5625,0 0.5625,0 0.5625,0 0,-0.70313 -0.5625,0 -0.5625,0 -0.5625,0 -0.5625,0 -0.56445,0 -0.5625,0 -0.5625,0 -0.5625,0 z m 4.7832,0 0,0.70313 0.5625,0 0.5625,0 0.5625,0 0.56446,0 0.5625,0 0.5625,0 0.5625,0 0,-0.70313 -0.5625,0 -0.5625,0 -0.5625,0 -0.56446,0 -0.5625,0 -0.5625,0 -0.5625,0 z m 4.22071,0 0,0.70313 0.5625,0 0.5625,0 0.5625,0 0.56445,0 0.5625,0 0.5625,0 0.5625,0 0,-0.70313 -0.5625,0 -0.5625,0 -0.5625,0 -0.56445,0 -0.5625,0 -0.5625,0 -0.5625,0 z m 4.2207,0 0,0.70313 0.5625,0 0.5625,0 0.5625,0 0.5625,0 0.56445,0 0.5625,0 0,-0.70313 -0.5625,0 -0.56445,0 -0.5625,0 -0.5625,0 -0.5625,0 -0.5625,0 z m 3.6582,0 0,0.70313 0.5625,0 0.5625,0 0.5625,0 0,-0.70313 -0.5625,0 -0.5625,0 -0.5625,0 z m 1.96875,0 0,0.70313 0.5625,0 0.5625,0 0.56446,0 0.5625,0 0.5625,0 0.5625,0 0.5625,0 0,-0.70313 -0.5625,0 -0.5625,0 -0.5625,0 -0.5625,0 -0.56446,0 -0.5625,0 -0.5625,0 z m 4.22071,0 0,0.70313 0.5625,0 0.5625,0 0.56445,0 0,-0.70313 -0.56445,0 -0.5625,0 -0.5625,0 z m 1.9707,0 0,0.70313 0.5625,0 0.5625,0 0.5625,0 0.5625,0 0.5625,0 0.5625,0 0,-0.70313 -0.5625,0 -0.5625,0 -0.5625,0 -0.5625,0 -0.5625,0 -0.5625,0 z m -24.76172,1.40625 0,0.70508 0.5625,0 0.5625,0 0.5625,0 0,-0.70508 -0.5625,0 -0.5625,0 -0.5625,0 z m -0.28125,1.4082 0,0.70313 0.5625,0 0.5625,0 0.5625,0 0.56445,0 0.5625,0 0.5625,0 0.5625,0 0.5625,0 0,-0.70313 -0.5625,0 -0.5625,0 -0.5625,0 -0.5625,0 -0.56445,0 -0.5625,0 -0.5625,0 -0.5625,0 z m 4.7832,0 0,0.70313 0.5625,0 0.5625,0 0.5625,0 0.56446,0 0.5625,0 0.5625,0 0,-0.70313 -0.5625,0 -0.5625,0 -0.56446,0 -0.5625,0 -0.5625,0 -0.5625,0 z m 3.65821,0 0,0.70313 0.5625,0 0.5625,0 0.5625,0 0.5625,0 0.56445,0 0.5625,0 0,-0.70313 -0.5625,0 -0.56445,0 -0.5625,0 -0.5625,0 -0.5625,0 -0.5625,0 z m 3.6582,0 0,0.70313 0.5625,0 0.5625,0 0.5625,0 0,-0.70313 -0.5625,0 -0.5625,0 -0.5625,0 z m 1.96875,0 0,0.70313 0.5625,0 0.5625,0 0.56445,0 0.5625,0 0.5625,0 0.5625,0 0.5625,0 0.5625,0 0.5625,0 0.5625,0 0.56446,0 0,-0.70313 -0.56446,0 -0.5625,0 -0.5625,0 -0.5625,0 -0.5625,0 -0.5625,0 -0.5625,0 -0.5625,0 -0.56445,0 -0.5625,0 -0.5625,0 z m 6.47266,0 0,0.70313 0.5625,0 0.5625,0 0.5625,0 0.5625,0 0.5625,0 0.5625,0 0.5625,0 0.56445,0 0,-0.70313 -0.56445,0 -0.5625,0 -0.5625,0 -0.5625,0 -0.5625,0 -0.5625,0 -0.5625,0 -0.5625,0 z m 4.7832,0 0,0.70313 0.5625,0 0.5625,0 0.5625,0 0.5625,0 0.5625,0 0.5625,0 0.56445,0 0,-0.70313 -0.56445,0 -0.5625,0 -0.5625,0 -0.5625,0 -0.5625,0 -0.5625,0 -0.5625,0 z m -25.04297,1.40625 0,0.70313 0.5625,0 0.5625,0 0.5625,0 0.56445,0 0.5625,0 0.5625,0 0,-0.70313 -0.5625,0 -0.5625,0 -0.56445,0 -0.5625,0 -0.5625,0 -0.5625,0 z m 3.6582,0 0,0.70313 0.5625,0 0.5625,0 0,-0.70313 -0.5625,0 -0.5625,0 z m 1.40625,0 0,0.70313 0.5625,0 0.5625,0 0.56446,0 0.5625,0 0.5625,0 0.5625,0 0,-0.70313 -0.5625,0 -0.5625,0 -0.5625,0 -0.56446,0 -0.5625,0 -0.5625,0 z m 3.65821,0 0,0.70313 0.5625,0 0.5625,0 0.5625,0 0,-0.70313 -0.5625,0 -0.5625,0 -0.5625,0 z m 1.96875,0 0,0.70313 0.56445,0 0.5625,0 0.5625,0 0.5625,0 0.5625,0 0.5625,0 0.5625,0 0,-0.70313 -0.5625,0 -0.5625,0 -0.5625,0 -0.5625,0 -0.5625,0 -0.5625,0 -0.56445,0 z m 4.2207,0 0,0.70313 0.56445,0 0.5625,0 0.5625,0 0.5625,0 0.5625,0 0.5625,0 0.5625,0 0.5625,0 0.56446,0 0.5625,0 0.5625,0 0.5625,0 0.5625,0 0,-0.70313 -0.5625,0 -0.5625,0 -0.5625,0 -0.5625,0 -0.56446,0 -0.5625,0 -0.5625,0 -0.5625,0 -0.5625,0 -0.5625,0 -0.5625,0 -0.5625,0 -0.56445,0 z"
       id="path4876"
       inkscape:connector-curvature="0" />
    <rect
       style="opacity:1;fill:#2d2110;fill-opacity:0.31372549;stroke:none"
       id="rect4244"
       width="32.000031"
       height="1.9999737"
       x="392.57141"
       y="539.79797" />
    <path
       style="fill:#ebebeb;fill-rule:evenodd;stroke:none;stroke-width:1px;stroke-linecap:butt;stroke-linejoin:miter;stroke-opacity:1;fill-opacity:1"
       d="m 424.57143,529.798 -10,10 0,-10 z"
       id="path4252"
       inkscape:connector-curvature="0" />
    <path
       style="fill:url(#linearGradient4299);fill-rule:evenodd;stroke:none;stroke-width:1px;stroke-linecap:butt;stroke-linejoin:miter;stroke-opacity:1;fill-opacity:1;opacity:0.2"
       d="m 414.57143,539.798 4,4 8,0 0,-11 0,-1 -2,-2 z"
       id="path4281"
       inkscape:connector-curvature="0" />
    <rect
       y="540.79797"
       x="392.57141"
       height="0.99997365"
       width="32.000031"
       id="rect4301"
       style="opacity:1;fill:#2d2110;fill-opacity:0.31372549;stroke:none" />
    <path
       style="fill:url(#linearGradient6171);fill-rule:evenodd;stroke:none;stroke-width:1px;stroke-linecap:butt;stroke-linejoin:miter;stroke-opacity:1;fill-opacity:1"
       d="m 415.57143,530.798 0,8 8,-8 z"
       id="path6163"
       inkscape:connector-curvature="0" />
  </g>
</svg>
