<?xml version="1.0" encoding="UTF-8" standalone="no"?>
<!-- Created with Inkscape (http://www.inkscape.org/) -->

<svg
   xmlns:dc="http://purl.org/dc/elements/1.1/"
   xmlns:cc="http://creativecommons.org/ns#"
   xmlns:rdf="http://www.w3.org/1999/02/22-rdf-syntax-ns#"
   xmlns:svg="http://www.w3.org/2000/svg"
   xmlns="http://www.w3.org/2000/svg"
   xmlns:xlink="http://www.w3.org/1999/xlink"
   xmlns:sodipodi="http://sodipodi.sourceforge.net/DTD/sodipodi-0.dtd"
   xmlns:inkscape="http://www.inkscape.org/namespaces/inkscape"
   width="64"
   height="64"
   id="svg5453"
   version="1.1"
   inkscape:version="0.49 r12742"
   sodipodi:docname="folder.svg">
  <defs
     id="defs5455">
    <linearGradient
       id="linearGradient4579"
       inkscape:collect="always">
      <stop
         id="stop4581"
         offset="0"
         style="stop-color:#1c3f67;stop-opacity:1" />
      <stop
         id="stop4583"
         offset="1"
         style="stop-color:#8ab7e1;stop-opacity:0" />
    </linearGradient>
    <linearGradient
       inkscape:collect="always"
       id="linearGradient4336">
      <stop
         style="stop-color:#ffffff;stop-opacity:1;"
         offset="0"
         id="stop4338" />
      <stop
         style="stop-color:#ffffff;stop-opacity:0;"
         offset="1"
         id="stop4340" />
    </linearGradient>
    <linearGradient
       id="linearGradient4232"
       inkscape:collect="always">
      <stop
         id="stop4234"
         offset="0"
         style="stop-color:#3d6584;stop-opacity:1" />
      <stop
         id="stop4236"
         offset="1"
         style="stop-color:#4a7ba3;stop-opacity:1" />
    </linearGradient>
    <linearGradient
       inkscape:collect="always"
       id="linearGradient4172">
      <stop
         style="stop-color:#6298d5;stop-opacity:1"
         offset="0"
         id="stop4174" />
      <stop
         style="stop-color:#8ab7e1;stop-opacity:1"
         offset="1"
         id="stop4176" />
    </linearGradient>
    <linearGradient
       inkscape:collect="always"
       xlink:href="#linearGradient4172"
       id="linearGradient4178"
       x1="414.57144"
       y1="541.79797"
       x2="414.57144"
       y2="499.798"
       gradientUnits="userSpaceOnUse"
       gradientTransform="translate(-384.57143,-483.798)" />
    <linearGradient
       inkscape:collect="always"
       xlink:href="#linearGradient4232"
       id="linearGradient4182"
       gradientUnits="userSpaceOnUse"
       x1="414.57144"
       y1="523.79797"
       x2="414.57144"
       y2="505.798"
       gradientTransform="translate(-384.57143,-499.798)" />
    <linearGradient
       inkscape:collect="always"
       xlink:href="#linearGradient4579"
       id="linearGradient4320"
       x1="34"
       y1="57.999973"
       x2="34"
       y2="54"
       gradientUnits="userSpaceOnUse" />
    <linearGradient
       inkscape:collect="always"
       xlink:href="#linearGradient4336"
       id="linearGradient4342"
       x1="37"
       y1="13"
       x2="37"
       y2="20"
       gradientUnits="userSpaceOnUse" />
    <radialGradient
       inkscape:collect="always"
       xlink:href="#linearGradient4336"
       id="radialGradient4569"
       cx="43.625"
       cy="-18.831745"
       fx="43.625"
       fy="-18.831745"
       r="28"
       gradientTransform="matrix(1,0,0,0.10916575,0,8.0557855)"
       gradientUnits="userSpaceOnUse" />
    <radialGradient
       inkscape:collect="always"
       xlink:href="#linearGradient4336"
       id="radialGradient4573"
       gradientUnits="userSpaceOnUse"
       gradientTransform="matrix(1,0,0,0.10916575,0,8.0557855)"
       cx="56"
       cy="36.130512"
       fx="56"
       fy="36.130512"
       r="28" />
    <radialGradient
       inkscape:collect="always"
       xlink:href="#linearGradient4336"
       id="radialGradient4577"
       gradientUnits="userSpaceOnUse"
       gradientTransform="matrix(1,0,0,0.10916575,0,8.0557855)"
       cx="1"
       cy="-18.831781"
       fx="1"
       fy="-18.831781"
       r="28" />
    <radialGradient
       inkscape:collect="always"
       xlink:href="#linearGradient4336"
       id="radialGradient4587"
       gradientUnits="userSpaceOnUse"
       gradientTransform="matrix(1,0,0,0.10916575,0,8.0557855)"
       cx="28"
       cy="36.130512"
       fx="28"
       fy="36.130512"
       r="28" />
  </defs>
  <sodipodi:namedview
     id="base"
     pagecolor="#ffffff"
     bordercolor="#666666"
     borderopacity="1.0"
     inkscape:pageopacity="0"
     inkscape:pageshadow="2"
     inkscape:zoom="1.4142136"
     inkscape:cx="-105.48625"
     inkscape:cy="-30.712024"
     inkscape:document-units="px"
     inkscape:current-layer="layer1"
     showgrid="true"
     fit-margin-top="0"
     fit-margin-left="0"
     fit-margin-right="0"
     fit-margin-bottom="0"
     inkscape:window-width="1366"
     inkscape:window-height="718"
     inkscape:window-x="-2"
     inkscape:window-y="23"
     inkscape:window-maximized="1"
     inkscape:showpageshadow="false"
     borderlayer="true">
    <sodipodi:guide
       position="6.0000117,57.999996"
       orientation="51.999969,0"
       id="guide4097" />
    <sodipodi:guide
       position="6.0000117,6.0000264"
       orientation="0,52"
       id="guide4099" />
    <sodipodi:guide
       position="58.000012,6.0000264"
       orientation="-51.999969,0"
       id="guide4101" />
    <sodipodi:guide
       position="58.000012,57.999996"
       orientation="0,-52"
       id="guide4103" />
    <sodipodi:guide
       position="3.0000117,60.999996"
       orientation="57.999969,0"
       id="guide4105" />
    <sodipodi:guide
       position="3.0000117,3.0000264"
       orientation="0,58"
       id="guide4107" />
    <sodipodi:guide
       position="61.000012,3.0000264"
       orientation="-57.999969,0"
       id="guide4109" />
    <sodipodi:guide
       position="61.000012,60.999996"
       orientation="0,-58"
       id="guide4111" />
    <inkscape:grid
       type="xygrid"
       id="grid4115" />
  </sodipodi:namedview>
  <metadata
     id="metadata5458">
    <rdf:RDF>
      <cc:Work
         rdf:about="">
        <dc:format>image/svg+xml</dc:format>
        <dc:type
           rdf:resource="http://purl.org/dc/dcmitype/StillImage" />
        <dc:title />
      </cc:Work>
    </rdf:RDF>
  </metadata>
  <g
     inkscape:label="Capa 1"
     inkscape:groupmode="layer"
     id="layer1"
     transform="translate(-384.57143,-483.798)">
    <path
       style="fill:url(#linearGradient4182);fill-opacity:1;stroke:none"
       d="M 6,6 C 6,6 4,5.798154 4,7 l 0,3 0,23 c 0,0.554 0.446,1 1,1 l 54,0 c 0.55399,0 1,-0.446 1,-1 l 0,-22 c 0,-0.554 -0.44601,-1 -1,-1 L 35,10 32,10 30,7 C 29.42265,6 29,6 28,6 l -2,0 z"
       id="rect4180"
       inkscape:connector-curvature="0"
       sodipodi:nodetypes="sscsssssscccccs"
       transform="translate(384.57143,483.798)" />
    <path
       style="fill:#000000;fill-opacity:0.05882353;stroke:none"
       d="M 5.265625,5.9863281 C 5.2141785,5.9862965 5.1747755,5.9985646 5.125,6 L 6,6 C 5.75,6 5.5,5.9864723 5.265625,5.9863281 Z M 56,10 c 0.55399,0 1,0.446 1,1 l 0,22 c 0,0.554 -0.44601,1 -1,1 l 3,0 c 0.55399,0 1,-0.446 1,-1 l 0,-22 c 0,-0.554 -0.44601,-1 -1,-1 z"
       transform="translate(384.57143,483.798)"
       id="path4511"
       inkscape:connector-curvature="0"
       sodipodi:nodetypes="sccscsscssssc" />
    <path
       style="fill:#000000;fill-opacity:0.11764706;stroke:none"
       d="M 5.265625,5.9863281 C 5.2141785,5.9862965 5.1747755,5.9985646 5.125,6 L 6,6 C 5.75,6 5.5,5.9864723 5.265625,5.9863281 Z M 57,10 c 0.55399,0 1,0.446 1,1 l 0,22 c 0,0.554 -0.44601,1 -1,1 l 2,0 c 0.55399,0 1,-0.446 1,-1 l 0,-22 c 0,-0.554 -0.44601,-1 -1,-1 z"
       transform="translate(384.57143,483.798)"
       id="path4506"
       inkscape:connector-curvature="0"
       sodipodi:nodetypes="sccscsscssssc" />
    <path
       style="fill:#000000;fill-opacity:0.23529412;stroke:none"
       d="M 5.265625,5.9863281 C 5.2141785,5.9862965 5.1747755,5.9985646 5.125,6 L 6,6 C 5.75,6 5.5,5.9864723 5.265625,5.9863281 Z M 58,10 c 0.55399,0 1,0.446 1,1 l 0,22 c 0,0.554 -0.44601,1 -1,1 l 1,0 c 0.55399,0 1,-0.446 1,-1 l 0,-22 c 0,-0.554 -0.44601,-1 -1,-1 z"
       transform="translate(384.57143,483.798)"
       id="path4516"
       inkscape:connector-curvature="0"
       sodipodi:nodetypes="sccscsscssssc" />
    <path
       sodipodi:nodetypes="cscsccssssssccsc"
       inkscape:connector-curvature="0"
       id="path4483"
       transform="translate(384.57143,483.798)"
       d="m 58.734375,12.986164 c -0.23438,1.4e-4 -0.48474,1.76e-4 -0.734375,0.01367 l -37,0 -2,0 c -1,0 -1.42265,0 -2,1 l -2,3 -10,0 c -0.5539977,0 -1,0.446002 -1,1 L 4,57 c 0,0.553998 0.4460023,1 1,1 l 54,0 c 0.553998,0 1.001539,-0.446004 1,-1 l 0,-39.000164 0,-1 0,-3 c 0,-0.90139 -0.562505,-1.014102 -1.265625,-1.013672 z"
       style="fill:#000000;fill-opacity:0.05882353;stroke:none" />
    <path
       style="fill:#000000;fill-opacity:0.11764706;stroke:none"
       d="m 58.734375,13.986164 c -0.23438,1.4e-4 -0.484782,-5.92e-4 -0.734375,0.01367 l -35,0 -2,0 c -1,0 -1.42265,0 -2,1 l -2,3 -12,0 c -0.5539977,0 -1,0.446002 -1,1 L 4,57 c 0,0.553998 0.4460023,1 1,1 l 54,0 c 0.553998,0 1.001539,-0.446004 1,-1 l 0,-38.000164 0,-1 0,-3 c 0,-0.90139 -0.562505,-1.014102 -1.265625,-1.013672 z"
       transform="translate(384.57143,483.798)"
       id="path4481"
       inkscape:connector-curvature="0"
       sodipodi:nodetypes="cscsccssssssccsc" />
    <path
       sodipodi:nodetypes="cscsccssssssccsc"
       inkscape:connector-curvature="0"
       id="path4477"
       transform="translate(384.57143,483.798)"
       d="M 58.734375,14.986164 C 58.499995,14.986304 58.25,14.999834 58,14.999834 l -34,0 -2,0 c -1,0 -1.42265,0 -2,1 l -2,3 -13,0 c -0.5539977,0 -1,0.446002 -1,1 L 4,57 c 0,0.553998 0.4460023,1 1,1 l 54,0 c 0.553998,0 1.001539,-0.446004 1,-1 l 0,-37.000164 0,-1 0,-3 c 0,-0.90139 -0.562505,-1.014102 -1.265625,-1.013672 z"
       style="fill:#000000;fill-opacity:0.23529412;stroke:none" />
    <path
       style="fill:url(#linearGradient4178);fill-opacity:1;stroke:none"
       d="M 59.734375,15.986328 C 59.499995,15.986468 59.25,16 59,16 l -34,0 -2,0 c -1,0 -1.42265,0 -2,1 l -2,3 -15,0 c -0.5539977,0 -1,0.446002 -1,1 l 0,36 c 0,0.553998 0.4460023,1 1,1 l 56,0 c 0.553998,0 1,-0.446002 1,-1 l 0,-36 0,-1 0,-3 c 0,-0.90139 -0.562505,-1.014102 -1.265625,-1.013672 z"
       transform="translate(384.57143,483.798)"
       id="rect4113"
       inkscape:connector-curvature="0"
       sodipodi:nodetypes="cscsccssssssccsc" />
    <path
       style="opacity:0.6;fill:url(#linearGradient4342);fill-opacity:1;stroke:none"
       d="m 59.734375,16 c -0.23438,1.4e-4 -0.484806,-0.001 -0.734375,0.01367 l -34,0 -2,0 c -1,0 -1.42265,3.6e-4 -2,1 l -2,2.998047 -15,0 c -0.554,0 -1,0.4462 -1,1 l 0,1 c 0,-0.5538 0.446,-1 1,-1 l 16,0 2,-2.998047 c 0.57735,-0.99964 1,-1 2,-1 l 2,0 33,0 c 0.25,0 0.499995,-0.01353 0.734375,-0.01367 C 60.437495,16.99957 61,17.112602 61,18.013672 l 0,-1 C 61,16.112602 60.437495,15.99957 59.734375,16 Z"
       transform="translate(384.57143,483.798)"
       id="path4269"
       inkscape:connector-curvature="0"
       sodipodi:nodetypes="cscsccsscsccscsccsc" />
    <path
       style="fill:url(#linearGradient4320);fill-opacity:1;stroke:none"
       d="M 3 53 L 3 57 C 3 57.553998 3.4460023 58 4 58 L 60 58 C 60.553998 58 61 57.553998 61 57 L 61 53 C 61 53.554 60.554 54 60 54 L 4 54 C 3.446 54 3 53.554 3 53 z "
       transform="translate(384.57143,483.798)"
       id="path4299" />
    <path
       style="fill:url(#radialGradient4569);fill-opacity:1;stroke:none"
       d="M 5.6875 5.9863281 C 5.125 5.9858955 4 6.0986155 4 7 L 4 8.0996094 C 4 6.8977594 6 7.0996094 6 7.0996094 L 25.099609 7.0996094 L 27.099609 7.0996094 C 28.099609 7.0996094 28.522259 7.0996094 29.099609 8.0996094 L 31.099609 11.099609 L 35 11.099609 L 59 11.099609 C 59.55399 11.099609 60 11.545609 60 12.099609 L 60 11 C 60 10.446 59.55399 10 59 10 L 35 10 L 32 10 L 30 7 C 29.42265 6 29 6 28 6 L 26 6 L 6 6 C 6 6 5.875 5.9864723 5.6875 5.9863281 z "
       transform="translate(384.57143,483.798)"
       id="path4556" />
    <path
       id="path4571"
       transform="translate(384.57143,483.798)"
       d="M 5.6875 5.9863281 C 5.125 5.9858955 4 6.0986155 4 7 L 4 8.0996094 C 4 6.8977594 6 7.0996094 6 7.0996094 L 25.099609 7.0996094 L 27.099609 7.0996094 C 28.099609 7.0996094 28.522259 7.0996094 29.099609 8.0996094 L 31.099609 11.099609 L 35 11.099609 L 59 11.099609 C 59.55399 11.099609 60 11.545609 60 12.099609 L 60 11 C 60 10.446 59.55399 10 59 10 L 35 10 L 32 10 L 30 7 C 29.42265 6 29 6 28 6 L 26 6 L 6 6 C 6 6 5.875 5.9864723 5.6875 5.9863281 z "
       style="fill:url(#radialGradient4573);fill-opacity:1;stroke:none" />
    <path
       style="fill:url(#radialGradient4577);fill-opacity:1;stroke:none"
       d="M 5.6875 5.9863281 C 5.125 5.9858955 4 6.0986155 4 7 L 4 8.0996094 C 4 6.8977594 6 7.0996094 6 7.0996094 L 25.099609 7.0996094 L 27.099609 7.0996094 C 28.099609 7.0996094 28.522259 7.0996094 29.099609 8.0996094 L 31.099609 11.099609 L 35 11.099609 L 59 11.099609 C 59.55399 11.099609 60 11.545609 60 12.099609 L 60 11 C 60 10.446 59.55399 10 59 10 L 35 10 L 32 10 L 30 7 C 29.42265 6 29 6 28 6 L 26 6 L 6 6 C 6 6 5.875 5.9864723 5.6875 5.9863281 z "
       transform="translate(384.57143,483.798)"
       id="path4575" />
    <path
       id="path4585"
       transform="translate(384.57143,483.798)"
       d="M 5.6875 5.9863281 C 5.125 5.9858955 4 6.0986155 4 7 L 4 8.0996094 C 4 6.8977594 6 7.0996094 6 7.0996094 L 25.099609 7.0996094 L 27.099609 7.0996094 C 28.099609 7.0996094 28.522259 7.0996094 29.099609 8.0996094 L 31.099609 11.099609 L 35 11.099609 L 59 11.099609 C 59.55399 11.099609 60 11.545609 60 12.099609 L 60 11 C 60 10.446 59.55399 10 59 10 L 35 10 L 32 10 L 30 7 C 29.42265 6 29 6 28 6 L 26 6 L 6 6 C 6 6 5.875 5.9864723 5.6875 5.9863281 z "
       style="fill:url(#radialGradient4587);fill-opacity:1;stroke:none" />
  </g>
</svg>
