<?xml version="1.0" encoding="UTF-8" standalone="no"?>
<!-- Created with Inkscape (http://www.inkscape.org/) -->

<svg
   xmlns:dc="http://purl.org/dc/elements/1.1/"
   xmlns:cc="http://creativecommons.org/ns#"
   xmlns:rdf="http://www.w3.org/1999/02/22-rdf-syntax-ns#"
   xmlns:svg="http://www.w3.org/2000/svg"
   xmlns="http://www.w3.org/2000/svg"
   xmlns:xlink="http://www.w3.org/1999/xlink"
   xmlns:sodipodi="http://sodipodi.sourceforge.net/DTD/sodipodi-0.dtd"
   xmlns:inkscape="http://www.inkscape.org/namespaces/inkscape"
   width="64"
   height="64"
   id="svg5453"
   version="1.1"
   inkscape:version="0.49 r12742"
   sodipodi:docname="folder-templates.svg">
  <defs
     id="defs5455">
    <linearGradient
       id="linearGradient4579"
       inkscape:collect="always">
      <stop
         id="stop4581"
         offset="0"
         style="stop-color:#1c3f67;stop-opacity:1" />
      <stop
         id="stop4583"
         offset="1"
         style="stop-color:#8ab7e1;stop-opacity:0" />
    </linearGradient>
    <linearGradient
       id="linearGradient4418"
       inkscape:collect="always">
      <stop
         id="stop4420"
         offset="0"
         style="stop-color:#366890;stop-opacity:1" />
      <stop
         id="stop4422"
         offset="1"
         style="stop-color:#9cbfdc;stop-opacity:0" />
    </linearGradient>
    <linearGradient
       inkscape:collect="always"
       id="linearGradient4336">
      <stop
         style="stop-color:#ffffff;stop-opacity:1;"
         offset="0"
         id="stop4338" />
      <stop
         style="stop-color:#ffffff;stop-opacity:0;"
         offset="1"
         id="stop4340" />
    </linearGradient>
    <linearGradient
       id="linearGradient4232"
       inkscape:collect="always">
      <stop
         id="stop4234"
         offset="0"
         style="stop-color:#3d6584;stop-opacity:1" />
      <stop
         id="stop4236"
         offset="1"
         style="stop-color:#4a7ba3;stop-opacity:1" />
    </linearGradient>
    <linearGradient
       inkscape:collect="always"
       id="linearGradient4172">
      <stop
         style="stop-color:#6298d5;stop-opacity:1"
         offset="0"
         id="stop4174" />
      <stop
         style="stop-color:#8ab7e1;stop-opacity:1"
         offset="1"
         id="stop4176" />
    </linearGradient>
    <linearGradient
       inkscape:collect="always"
       xlink:href="#linearGradient4172"
       id="linearGradient4178"
       x1="414.57144"
       y1="541.79797"
       x2="414.57144"
       y2="499.798"
       gradientUnits="userSpaceOnUse"
       gradientTransform="matrix(1,0,0,0.99967455,0,0.1763265)" />
    <linearGradient
       inkscape:collect="always"
       xlink:href="#linearGradient4232"
       id="linearGradient4182"
       gradientUnits="userSpaceOnUse"
       x1="414.57144"
       y1="523.79797"
       x2="414.57144"
       y2="505.798"
       gradientTransform="matrix(1,0,0,0.99954446,0,-15.756835)" />
    <linearGradient
       inkscape:collect="always"
       xlink:href="#linearGradient4579"
       id="linearGradient4320"
       x1="34"
       y1="57.999973"
       x2="34"
       y2="54"
       gradientUnits="userSpaceOnUse" />
    <linearGradient
       inkscape:collect="always"
       xlink:href="#linearGradient4336"
       id="linearGradient4342"
       x1="37"
       y1="13"
       x2="37"
       y2="20"
       gradientUnits="userSpaceOnUse"
       gradientTransform="matrix(1,0,0,0.99805077,384.57143,483.82923)" />
    <linearGradient
       inkscape:collect="always"
       xlink:href="#linearGradient4418"
       id="linearGradient4365"
       x1="3"
       y1="43"
       x2="4"
       y2="43"
       gradientUnits="userSpaceOnUse"
       gradientTransform="translate(384.57143,483.798)" />
    <radialGradient
       inkscape:collect="always"
       xlink:href="#linearGradient4336"
       id="radialGradient4569"
       cx="43.625"
       cy="-18.831745"
       fx="43.625"
       fy="-18.831745"
       r="28"
       gradientTransform="matrix(1,0,0,0.10714285,384.57143,491.82872)"
       gradientUnits="userSpaceOnUse" />
    <radialGradient
       inkscape:collect="always"
       xlink:href="#linearGradient4336"
       id="radialGradient4573"
       gradientUnits="userSpaceOnUse"
       gradientTransform="matrix(1,0,0,0.10714285,384.57143,491.82872)"
       cx="56"
       cy="36.130512"
       fx="56"
       fy="36.130512"
       r="28" />
    <radialGradient
       inkscape:collect="always"
       xlink:href="#linearGradient4336"
       id="radialGradient4577"
       gradientUnits="userSpaceOnUse"
       gradientTransform="matrix(1,0,0,0.10714285,384.57143,491.82872)"
       cx="1"
       cy="-18.831781"
       fx="1"
       fy="-18.831781"
       r="28" />
    <radialGradient
       inkscape:collect="always"
       xlink:href="#linearGradient4336"
       id="radialGradient4587"
       gradientUnits="userSpaceOnUse"
       gradientTransform="matrix(1,0,0,0.10714285,384.57143,491.82872)"
       cx="28"
       cy="36.130512"
       fx="28"
       fy="36.130512"
       r="28" />
    <linearGradient
       inkscape:collect="always"
       xlink:href="#linearGradient4418"
       id="linearGradient4154"
       x1="61"
       y1="38"
       x2="60"
       y2="38"
       gradientUnits="userSpaceOnUse" />
  </defs>
  <sodipodi:namedview
     id="base"
     pagecolor="#ffffff"
     bordercolor="#666666"
     borderopacity="1.0"
     inkscape:pageopacity="0"
     inkscape:pageshadow="2"
     inkscape:zoom="22.627417"
     inkscape:cx="34.815196"
     inkscape:cy="24.393661"
     inkscape:document-units="px"
     inkscape:current-layer="layer1"
     showgrid="true"
     fit-margin-top="0"
     fit-margin-left="0"
     fit-margin-right="0"
     fit-margin-bottom="0"
     inkscape:window-width="1366"
     inkscape:window-height="718"
     inkscape:window-x="-2"
     inkscape:window-y="23"
     inkscape:window-maximized="1"
     inkscape:showpageshadow="false"
     borderlayer="true"
     showguides="true">
    <sodipodi:guide
       position="6.0000117,57.999996"
       orientation="51.999969,0"
       id="guide4097" />
    <sodipodi:guide
       position="6.0000117,6.0000264"
       orientation="0,52"
       id="guide4099" />
    <sodipodi:guide
       position="58.000012,6.0000264"
       orientation="-51.999969,0"
       id="guide4101" />
    <sodipodi:guide
       position="58.000012,57.999996"
       orientation="0,-52"
       id="guide4103" />
    <sodipodi:guide
       position="3.0000117,60.999996"
       orientation="57.999969,0"
       id="guide4105" />
    <sodipodi:guide
       position="3.0000117,3.0000264"
       orientation="0,58"
       id="guide4107" />
    <sodipodi:guide
       position="61.000012,3.0000264"
       orientation="-57.999969,0"
       id="guide4109" />
    <sodipodi:guide
       position="61.000012,60.999996"
       orientation="0,-58"
       id="guide4111" />
    <inkscape:grid
       type="xygrid"
       id="grid4115" />
    <sodipodi:guide
       position="20.000012,38.999996"
       orientation="23.999969,0"
       id="guide4129" />
    <sodipodi:guide
       position="20.000012,15.000026"
       orientation="0,24"
       id="guide4131" />
    <sodipodi:guide
       position="44.000012,15.000026"
       orientation="-23.999969,0"
       id="guide4133" />
    <sodipodi:guide
       position="44.000012,38.999996"
       orientation="0,-24"
       id="guide4135" />
    <sodipodi:guide
       position="22.000015,36.999992"
       orientation="19.999975,0"
       id="guide4137" />
    <sodipodi:guide
       position="22.000015,17.000017"
       orientation="0,20"
       id="guide4139" />
    <sodipodi:guide
       position="42.000015,17.000017"
       orientation="-19.999975,0"
       id="guide4141" />
    <sodipodi:guide
       position="42.000015,36.999992"
       orientation="0,-20"
       id="guide4143" />
    <sodipodi:guide
       position="35.000012,17.000026"
       orientation="0,5.9999695"
       id="guide4134" />
    <sodipodi:guide
       position="22.000012,25.000026"
       orientation="8,0"
       id="guide4128" />
    <sodipodi:guide
       position="22.000012,17.000026"
       orientation="0,8"
       id="guide4130" />
    <sodipodi:guide
       position="30.000012,17.000026"
       orientation="-8,0"
       id="guide4132" />
    <sodipodi:guide
       position="30.000012,25.000026"
       orientation="0,-8"
       id="guide4136" />
    <sodipodi:guide
       position="34.000012,37.000026"
       orientation="8,0"
       id="guide4142" />
    <sodipodi:guide
       position="34.000012,29.000026"
       orientation="0,8.0000305"
       id="guide4144" />
    <sodipodi:guide
       position="42.000042,29.000026"
       orientation="-8,0"
       id="guide4146" />
    <sodipodi:guide
       position="42.000042,37.000026"
       orientation="0,-8.0000305"
       id="guide4148" />
  </sodipodi:namedview>
  <metadata
     id="metadata5458">
    <rdf:RDF>
      <cc:Work
         rdf:about="">
        <dc:format>image/svg+xml</dc:format>
        <dc:type
           rdf:resource="http://purl.org/dc/dcmitype/StillImage" />
        <dc:title />
      </cc:Work>
    </rdf:RDF>
  </metadata>
  <g
     inkscape:label="Capa 1"
     inkscape:groupmode="layer"
     id="layer1"
     transform="translate(-384.57143,-483.798)">
    <path
       style="fill:url(#linearGradient4182);fill-opacity:1;stroke:none"
       d="m 390.57143,489.81076 c 0,0 -2,-0.20176 -2,0.99954 l 0,2.99863 0,22.98953 c 0,0.55374 0.446,0.99954 1,0.99954 l 54,0 c 0.55399,0 1,-0.4458 1,-0.99954 l 0,-21.98998 c 0,-0.55375 -0.44601,-0.99955 -1,-0.99955 l -24,0 -3,0 -2,-2.99863 c -0.57735,-0.99954 -1,-0.99954 -2,-0.99954 l -2,0 z"
       id="rect4180"
       inkscape:connector-curvature="0"
       sodipodi:nodetypes="sscsssssscccccs" />
    <path
       style="fill:#000000;fill-opacity:0.05882353;stroke:none"
       d="m 389.83706,489.798 c -0.0514,-3e-5 -0.0908,0.0122 -0.14063,0.0137 l 0.875,0 c -0.25,0 -0.5,-0.0135 -0.73437,-0.0137 z m 50.73437,4.01171 c 0.55399,0 1,0.44579 1,0.99952 l 0,21.98926 c 0,0.55373 -0.44601,0.99951 -1,0.99951 l 3,0 c 0.55399,0 1,-0.44578 1,-0.99951 l 0,-21.98926 c 0,-0.55373 -0.44601,-0.99952 -1,-0.99952 z"
       id="path4511"
       inkscape:connector-curvature="0"
       sodipodi:nodetypes="sccscsscssssc" />
    <path
       style="fill:#000000;fill-opacity:0.11764706;stroke:none"
       d="m 389.83706,489.798 c -0.0514,-3e-5 -0.0908,0.0122 -0.14063,0.0137 l 0.875,0 c -0.25,0 -0.5,-0.0135 -0.73437,-0.0137 z m 51.73437,4.01171 c 0.55399,0 1,0.44579 1,0.99952 l 0,21.98926 c 0,0.55373 -0.44601,0.99951 -1,0.99951 l 2,0 c 0.55399,0 1,-0.44578 1,-0.99951 l 0,-21.98926 c 0,-0.55373 -0.44601,-0.99952 -1,-0.99952 z"
       id="path4506"
       inkscape:connector-curvature="0"
       sodipodi:nodetypes="sccscsscssssc" />
    <path
       style="fill:#000000;fill-opacity:0.23529412;stroke:none"
       d="m 389.83706,489.798 c -0.0514,-3e-5 -0.0908,0.0122 -0.14063,0.0137 l 0.875,0 c -0.25,0 -0.5,-0.0135 -0.73437,-0.0137 z m 52.73437,4.01171 c 0.55399,0 1,0.44579 1,0.99952 l 0,21.98926 c 0,0.55373 -0.44601,0.99951 -1,0.99951 l 1,0 c 0.55399,0 1,-0.44578 1,-0.99951 l 0,-21.98926 c 0,-0.55373 -0.44601,-0.99952 -1,-0.99952 z"
       id="path4516"
       inkscape:connector-curvature="0"
       sodipodi:nodetypes="sccscsscssssc" />
    <path
       style="fill:#000000;fill-opacity:0.05882353;stroke:none"
       d="m 389.83706,489.798 c -0.70313,-4.3e-4 -1.26563,0.11223 -1.26563,1.01318 l 0,2.99853 0,22.98878 c 0,0.55373 0.446,0.99951 1,0.99951 l 3,0 c -0.554,0 -1,-0.44578 -1,-0.99951 l 0,-22.98878 0,-2.99853 c 0,-0.83503 0.49449,-0.98134 1.125,-0.99951 l -2.125,0 c -0.25,0 -0.5,-0.0135 -0.73437,-0.0137 z"
       id="path4496"
       inkscape:connector-curvature="0" />
    <path
       style="fill:#000000;fill-opacity:0.11764706;stroke:none"
       d="m 389.83706,489.798 c -0.70313,-4.3e-4 -1.26563,0.11223 -1.26563,1.01318 l 0,2.99853 0,22.98878 c 0,0.55373 0.446,0.99951 1,0.99951 l 2,0 c -0.554,0 -1,-0.44578 -1,-0.99951 l 0,-22.98878 0,-2.99853 c 0,-0.83503 0.49449,-0.98134 1.125,-0.99951 l -1.125,0 c -0.25,0 -0.5,-0.0135 -0.73437,-0.0137 z"
       id="path4491"
       inkscape:connector-curvature="0" />
    <path
       style="fill:#000000;fill-opacity:0.23529412;stroke:none"
       d="m 389.83706,489.798 c -0.70313,-4.3e-4 -1.26563,0.11223 -1.26563,1.01318 l 0,2.99853 0,22.98878 c 0,0.55373 0.446,0.99951 1,0.99951 l 1,0 c -0.554,0 -1,-0.44578 -1,-0.99951 l 0,-22.98878 0,-2.99853 c 0,-0.83503 0.49449,-0.98134 1.125,-0.99951 l -0.125,0 c -0.25,0 -0.5,-0.0135 -0.73437,-0.0137 z"
       id="path4485"
       inkscape:connector-curvature="0" />
    <path
       sodipodi:nodetypes="cscsccssssssccsc"
       inkscape:connector-curvature="0"
       id="path4483"
       transform="translate(384.57143,483.798)"
       d="m 58.734375,12.986164 c -0.23438,1.4e-4 -0.48474,1.76e-4 -0.734375,0.01367 l -37,0 -2,0 c -1,0 -1.42265,0 -2,1 l -2,3 -10,0 c -0.5539977,0 -1,0.446002 -1,1 L 4,57 c 0,0.553998 0.4460023,1 1,1 l 54,0 c 0.553998,0 1.001539,-0.446004 1,-1 l 0,-39.000164 0,-1 0,-3 c 0,-0.90139 -0.562505,-1.014102 -1.265625,-1.013672 z"
       style="fill:#000000;fill-opacity:0.05882353;stroke:none" />
    <path
       style="fill:#000000;fill-opacity:0.11764706;stroke:none"
       d="m 58.734375,13.986164 c -0.23438,1.4e-4 -0.484782,-5.92e-4 -0.734375,0.01367 l -35,0 -2,0 c -1,0 -1.42265,0 -2,1 l -2,3 -12,0 c -0.5539977,0 -1,0.446002 -1,1 L 4,57 c 0,0.553998 0.4460023,1 1,1 l 54,0 c 0.553998,0 1.001539,-0.446004 1,-1 l 0,-38.000164 0,-1 0,-3 c 0,-0.90139 -0.562505,-1.014102 -1.265625,-1.013672 z"
       transform="translate(384.57143,483.798)"
       id="path4481"
       inkscape:connector-curvature="0"
       sodipodi:nodetypes="cscsccssssssccsc" />
    <path
       sodipodi:nodetypes="cscsccssssssccsc"
       inkscape:connector-curvature="0"
       id="path4477"
       transform="translate(384.57143,483.798)"
       d="M 58.734375,14.986164 C 58.499995,14.986304 58.25,14.999834 58,14.999834 l -34,0 -2,0 c -1,0 -1.42265,0 -2,1 l -2,3 -13,0 c -0.5539977,0 -1,0.446002 -1,1 L 4,57 c 0,0.553998 0.4460023,1 1,1 l 54,0 c 0.553998,0 1.001539,-0.446004 1,-1 l 0,-37.000164 0,-1 0,-3 c 0,-0.90139 -0.562505,-1.014102 -1.265625,-1.013672 z"
       style="fill:#000000;fill-opacity:0.23529412;stroke:none" />
    <path
       style="fill:url(#linearGradient4178);fill-opacity:1;stroke:none"
       d="m 444.30581,499.798 c -0.23438,1.4e-4 -0.48438,0.0137 -0.73438,0.0137 l -34,0 -2,0 c -1,0 -1.42265,0 -2,0.99967 l -2,2.99903 -15,0 c -0.554,0 -1,0.44585 -1,0.99967 l 0,35.98829 c 0,0.55381 0.446,0.99967 1,0.99967 l 56,0 c 0.554,0 1,-0.44586 1,-0.99967 l 0,-35.98829 0,-0.99967 0,-2.99903 c 0,-0.90109 -0.5625,-1.01377 -1.26562,-1.01334 z"
       id="rect4113"
       inkscape:connector-curvature="0"
       sodipodi:nodetypes="cscsccssssssccsc" />
    <path
       style="opacity:0.6;fill:url(#linearGradient4342);fill-opacity:1;stroke:none"
       d="m 444.30581,499.79804 c -0.23438,1.4e-4 -0.48481,-0.001 -0.73438,0.0136 l -34,0 -2,0 c -1,0 -1.42265,3.6e-4 -2,0.99805 l -2,2.99221 -15,0 c -0.554,0 -1,0.44533 -1,0.99805 l 0,0.99805 c 0,-0.55272 0.446,-0.99805 1,-0.99805 l 16,0 2,-2.99221 c 0.57735,-0.99769 1,-0.99805 2,-0.99805 l 2,0 33,0 c 0.25,0 0.5,-0.0135 0.73438,-0.0136 0.70312,-4.3e-4 1.26562,0.11238 1.26562,1.0117 l 0,-0.99806 c 0,-0.89931 -0.5625,-1.01212 -1.26562,-1.01169 z"
       id="path4269"
       inkscape:connector-curvature="0"
       sodipodi:nodetypes="cscsccsscsccscsccsc" />
    <path
       style="fill:url(#linearGradient4365);fill-opacity:1;stroke:none"
       d="m 388.57143,503.798 c -0.554,0 -1,0.446 -1,1 l 0,36 c 0,0.554 0.446,1 1,1 l 1.09961,0 c -0.554,0 -1,-0.446 -1,-1 l 0,-36 c 0,-0.554 0.446,-1 1,-1 z"
       id="path4354"
       inkscape:connector-curvature="0"
       sodipodi:nodetypes="sssscsscs" />
    <path
       style="fill:url(#linearGradient4320);fill-opacity:1;stroke:none"
       d="M 3 53 L 3 57 C 3 57.553998 3.4460023 58 4 58 L 60 58 C 60.553998 58 61 57.553998 61 57 L 61 53 C 61 53.554 60.554 54 60 54 L 4 54 C 3.446 54 3 53.554 3 53 z "
       transform="translate(384.57143,483.798)"
       id="path4299" />
    <path
       style="fill:url(#radialGradient4569);fill-opacity:1;stroke:none"
       d="m 390.25893,489.79761 c -0.5625,-4.2e-4 -1.6875,0.11021 -1.6875,0.99489 l 0,1.07923 c 0,-1.17958 2,-0.98147 2,-0.98147 l 19.09961,0 2,0 c 1,0 1.42265,0 2,0.98147 l 2,2.94441 3.90039,0 24,0 c 0.55399,0 1,0.43773 1,0.98147 l 0,-1.07923 c 0,-0.54374 -0.44601,-0.98147 -1,-0.98147 l -24,0 -3,0 -2,-2.94441 c -0.57735,-0.98147 -1,-0.98147 -2,-0.98147 l -2,0 -20,0 c 0,0 -0.125,-0.0133 -0.3125,-0.0134 z"
       id="path4556"
       inkscape:connector-curvature="0" />
    <path
       id="path4571"
       d="m 390.25893,489.79761 c -0.5625,-4.2e-4 -1.6875,0.11021 -1.6875,0.99489 l 0,1.07923 c 0,-1.17958 2,-0.98147 2,-0.98147 l 19.09961,0 2,0 c 1,0 1.42265,0 2,0.98147 l 2,2.94441 3.90039,0 24,0 c 0.55399,0 1,0.43773 1,0.98147 l 0,-1.07923 c 0,-0.54374 -0.44601,-0.98147 -1,-0.98147 l -24,0 -3,0 -2,-2.94441 c -0.57735,-0.98147 -1,-0.98147 -2,-0.98147 l -2,0 -20,0 c 0,0 -0.125,-0.0133 -0.3125,-0.0134 z"
       style="fill:url(#radialGradient4573);fill-opacity:1;stroke:none"
       inkscape:connector-curvature="0" />
    <path
       style="fill:url(#radialGradient4577);fill-opacity:1;stroke:none"
       d="m 390.25893,489.79761 c -0.5625,-4.2e-4 -1.6875,0.11021 -1.6875,0.99489 l 0,1.07923 c 0,-1.17958 2,-0.98147 2,-0.98147 l 19.09961,0 2,0 c 1,0 1.42265,0 2,0.98147 l 2,2.94441 3.90039,0 24,0 c 0.55399,0 1,0.43773 1,0.98147 l 0,-1.07923 c 0,-0.54374 -0.44601,-0.98147 -1,-0.98147 l -24,0 -3,0 -2,-2.94441 c -0.57735,-0.98147 -1,-0.98147 -2,-0.98147 l -2,0 -20,0 c 0,0 -0.125,-0.0133 -0.3125,-0.0134 z"
       id="path4575"
       inkscape:connector-curvature="0" />
    <path
       id="path4585"
       d="m 390.25893,489.79761 c -0.5625,-4.2e-4 -1.6875,0.11021 -1.6875,0.99489 l 0,1.07923 c 0,-1.17958 2,-0.98147 2,-0.98147 l 19.09961,0 2,0 c 1,0 1.42265,0 2,0.98147 l 2,2.94441 3.90039,0 24,0 c 0.55399,0 1,0.43773 1,0.98147 l 0,-1.07923 c 0,-0.54374 -0.44601,-0.98147 -1,-0.98147 l -24,0 -3,0 -2,-2.94441 c -0.57735,-0.98147 -1,-0.98147 -2,-0.98147 l -2,0 -20,0 c 0,0 -0.125,-0.0133 -0.3125,-0.0134 z"
       style="fill:url(#radialGradient4587);fill-opacity:1;stroke:none"
       inkscape:connector-curvature="0" />
    <path
       style="fill:url(#linearGradient4154);fill-opacity:1;stroke:none"
       d="M 59.734375 16 C 59.499995 16.00014 59.25 16.013672 59 16.013672 L 58.851562 16.013672 C 59.44558 16.042613 59.900391 16.211416 59.900391 17.013672 L 59.900391 20.011719 L 59.900391 21.011719 L 59.900391 57 C 59.900391 57.55381 59.454391 58 58.900391 58 L 60 58 C 60.554 58 61 57.55381 61 57 L 61 21.011719 L 61 20.011719 L 61 17.013672 C 61 16.112582 60.437495 15.99957 59.734375 16 z "
       transform="translate(384.57143,483.798)"
       id="path4143" />
    <path
       style="fill:#387ecc;fill-opacity:1;stroke:none"
       d="m 23,27 0,16 1,0 0,-15 13,0 0,-1 z m 17,5 0,9 0,0.292969 L 35.292969,46 35,46 l -7,0 0,1 7,0 0.699219,0 0,-0.0078 L 35.707031,47 41,41.707031 l -0.0078,-0.0078 0.0078,0 L 41,41 41,32 Z"
       transform="translate(384.57143,483.798)"
       id="rect4164"
       inkscape:connector-curvature="0"
       sodipodi:nodetypes="cccccccccccccccccccccccc" />
    <rect
       style="fill:#387ecc;fill-opacity:1;stroke:none"
       id="rect4666"
       width="0.99998802"
       height="6"
       x="418.57144"
       y="523.79797" />
    <rect
       style="fill:#387ecc;fill-opacity:1;stroke:none"
       id="rect4668"
       width="5.9999881"
       height="1"
       x="418.57144"
       y="523.79797" />
    <path
       style="fill:#387ecc;stroke:none;stroke-width:1px;stroke-linecap:butt;stroke-linejoin:miter;stroke-opacity:1;fill-opacity:1"
       d="m 407.57143,527.798 4,0 -2,2.99997 z"
       id="path4712"
       inkscape:connector-curvature="0" />
    <path
       style="fill:#387ecc;fill-opacity:1;stroke:none"
       d="m 422.57147,514.798 0,-4 2.99996,2 z"
       id="path4712-4"
       inkscape:connector-curvature="0"
       sodipodi:nodetypes="cccc" />
  </g>
</svg>
