<?xml version="1.0" encoding="UTF-8" standalone="no"?>
<!-- Created with Inkscape (http://www.inkscape.org/) -->

<svg
   xmlns:dc="http://purl.org/dc/elements/1.1/"
   xmlns:cc="http://creativecommons.org/ns#"
   xmlns:rdf="http://www.w3.org/1999/02/22-rdf-syntax-ns#"
   xmlns:svg="http://www.w3.org/2000/svg"
   xmlns="http://www.w3.org/2000/svg"
   xmlns:sodipodi="http://sodipodi.sourceforge.net/DTD/sodipodi-0.dtd"
   xmlns:inkscape="http://www.inkscape.org/namespaces/inkscape"
   width="16"
   height="16"
   id="svg2"
   version="1.1"
   inkscape:version="0.49 r12742"
   viewBox="0 0 16 16"
   sodipodi:docname="folder-publicshare.svg">
  <defs
     id="defs4" />
  <sodipodi:namedview
     id="base"
     pagecolor="#ffffff"
     bordercolor="#666666"
     borderopacity="1.0"
     inkscape:pageopacity="0.0"
     inkscape:pageshadow="2"
     inkscape:zoom="48.790368"
     inkscape:cx="8.8258982"
     inkscape:cy="12.970506"
     inkscape:document-units="px"
     inkscape:current-layer="layer1"
     showgrid="true"
     inkscape:showpageshadow="false"
     borderlayer="true"
     units="px"
     inkscape:window-width="1366"
     inkscape:window-height="718"
     inkscape:window-x="-2"
     inkscape:window-y="23"
     inkscape:window-maximized="1"
     showguides="true">
    <inkscape:grid
       type="xygrid"
       id="grid4062" />
    <sodipodi:guide
       position="2,14.000017"
       orientation="12,0"
       id="guide4066" />
    <sodipodi:guide
       position="2,2.0000174"
       orientation="0,12"
       id="guide4068" />
    <sodipodi:guide
       position="14,2.0000174"
       orientation="-12,0"
       id="guide4070" />
    <sodipodi:guide
       position="14,14.000017"
       orientation="0,-12"
       id="guide4072" />
  </sodipodi:namedview>
  <metadata
     id="metadata7">
    <rdf:RDF>
      <cc:Work
         rdf:about="">
        <dc:format>image/svg+xml</dc:format>
        <dc:type
           rdf:resource="http://purl.org/dc/dcmitype/StillImage" />
        <dc:title />
      </cc:Work>
    </rdf:RDF>
  </metadata>
  <g
     inkscape:label="Capa 1"
     inkscape:groupmode="layer"
     id="layer1"
     transform="translate(0,-1036.3622)">
    <path
       style="fill:#4d4d4d;fill-opacity:1;stroke:none"
       d="M 6,8 C 3.7840057,8 2,9.7840057 2,12 l 0,2 8,0 0,-2 C 10,9.7840057 8.2159943,8 6,8 Z m 0,1 c 1.6619943,0 3,1.338006 3,3 l 0,1 -6,0 0,-1 C 3,10.338006 4.3380057,9 6,9 Z"
       transform="translate(0,1036.3622)"
       id="rect4401"
       inkscape:connector-curvature="0"
       sodipodi:nodetypes="ssccssssccss" />
    <path
       style="fill:#4d4d4d;fill-opacity:1;stroke:none"
       d="M 11 7 C 10.696797 7 10.406998 7.0478059 10.132812 7.1328125 L 11 8 C 12.107987 8 13 8.892 13 10 C 13 10.034 12.991934 10.065609 12.990234 10.099609 L 13 10.099609 L 13 11 L 11 11 L 11 12 L 14 12 L 14 10.099609 L 13.990234 10.099609 C 13.991434 10.065609 14 10.035 14 10 C 14 8.338 12.661987 7 11 7 z "
       transform="translate(0,1036.3622)"
       id="rect4422" />
    <path
       style="fill:#4d4d4d;fill-opacity:1;stroke:none"
       d="M 6 2 C 4.615 2 3.5 3.115 3.5 4.5 C 3.5 5.885 4.615 7 6 7 C 7.385 7 8.5 5.885 8.5 4.5 C 8.5 3.115 7.385 2 6 2 z M 6 3 C 6.831 3 7.5 3.669 7.5 4.5 C 7.5 5.331 6.831 6 6 6 C 5.169 6 4.5 5.331 4.5 4.5 C 4.5 3.669 5.169 3 6 3 z "
       transform="translate(0,1036.3622)"
       id="rect4072" />
    <rect
       style="fill:#4d4d4d;fill-opacity:1;stroke:none"
       id="rect4077"
       width="3.4999995"
       height="3.4999995"
       x="9.2999973"
       y="1038.8623"
       ry="1.7499998" />
  </g>
</svg>
