<?xml version="1.0" encoding="UTF-8" standalone="no"?>
<!-- Created with Inkscape (http://www.inkscape.org/) -->

<svg
   xmlns:dc="http://purl.org/dc/elements/1.1/"
   xmlns:cc="http://creativecommons.org/ns#"
   xmlns:rdf="http://www.w3.org/1999/02/22-rdf-syntax-ns#"
   xmlns:svg="http://www.w3.org/2000/svg"
   xmlns="http://www.w3.org/2000/svg"
   xmlns:sodipodi="http://sodipodi.sourceforge.net/DTD/sodipodi-0.dtd"
   xmlns:inkscape="http://www.inkscape.org/namespaces/inkscape"
   width="22"
   height="22"
   id="svg3613"
   version="1.1"
   inkscape:version="0.49 r12742"
   sodipodi:docname="applications-system.svg">
  <defs
     id="defs3615" />
  <sodipodi:namedview
     id="base"
     pagecolor="#ffffff"
     bordercolor="#666666"
     borderopacity="1.0"
     inkscape:pageopacity="0.0"
     inkscape:pageshadow="2"
     inkscape:zoom="22.627417"
     inkscape:cx="10.105944"
     inkscape:cy="13.230359"
     inkscape:document-units="px"
     inkscape:current-layer="layer1"
     showgrid="false"
     inkscape:window-width="1366"
     inkscape:window-height="718"
     inkscape:window-x="-2"
     inkscape:window-y="23"
     inkscape:window-maximized="1"
     inkscape:showpageshadow="false"
     borderlayer="true">
    <sodipodi:guide
       position="2,20.000017"
       orientation="18,0"
       id="guide4074" />
    <sodipodi:guide
       position="2,2.0000174"
       orientation="0,18"
       id="guide4076" />
    <sodipodi:guide
       position="20,2.0000174"
       orientation="-18,0"
       id="guide4078" />
    <sodipodi:guide
       position="20,20.000017"
       orientation="0,-18"
       id="guide4080" />
    <sodipodi:guide
       position="3,19.000017"
       orientation="16,0"
       id="guide4082" />
    <sodipodi:guide
       position="3,3.0000174"
       orientation="0,16"
       id="guide4084" />
    <sodipodi:guide
       position="19,3.0000174"
       orientation="-16,0"
       id="guide4086" />
    <sodipodi:guide
       position="19,19.000017"
       orientation="0,-16"
       id="guide4088" />
    <inkscape:grid
       type="xygrid"
       id="grid4090" />
  </sodipodi:namedview>
  <metadata
     id="metadata3618">
    <rdf:RDF>
      <cc:Work
         rdf:about="">
        <dc:format>image/svg+xml</dc:format>
        <dc:type
           rdf:resource="http://purl.org/dc/dcmitype/StillImage" />
        <dc:title></dc:title>
      </cc:Work>
    </rdf:RDF>
  </metadata>
  <g
     inkscape:label="Capa 1"
     inkscape:groupmode="layer"
     id="layer1"
     transform="translate(0,-1030.3622)">
    <path
       style="fill:#4d4d4d;fill-opacity:1;stroke:none"
       d="m 14,8 c -0.839202,0.00157 -1.671002,0.3744936 -2.230469,1 L 7,9 c -1.1079952,0 -2,0.8920048 -2,2 0,1.107995 0.8920048,2 2,2 l 4.767578,0 c 0.559902,0.625991 1.392569,0.998979 2.232422,1 1.570796,0 3,-1.429204 3,-3 0,-1.5707963 -1.429204,-3 -3,-3 z m 0,1 c 1.047198,0 2,0.9528024 2,2 0,1.047198 -0.952802,2 -2,2 C 13.303047,12.9988 12.61996,12.603581 12.271484,12 12.095724,11.698044 12.001068,11.349382 12,11 c 4.78e-4,-0.349207 0.09445,-0.697854 0.269531,-1 C 12.618333,9.3958566 13.302396,9.0005519 14,9 Z m -7,1 4.173828,0 C 11.059783,10.320267 11.000722,10.660034 11,11 c 0.0013,0.340078 0.06107,0.679849 0.175781,1 L 7,12 C 6.4459952,12 6,11.554005 6,11 6,10.445995 6.4459952,10 7,10 Z"
       transform="translate(0,1030.3622)"
       id="rect4102"
       inkscape:connector-curvature="0"
       sodipodi:nodetypes="ccsssccsccscccccscccsss" />
    <path
       style="fill:#4d4d4d;fill-opacity:1;stroke:none"
       d="M 3 3 L 3 19 L 19 19 L 19 3 L 3 3 z M 4 4 L 18 4 L 18 18 L 4 18 L 4 4 z "
       transform="translate(0,1030.3622)"
       id="rect4171" />
  </g>
</svg>
