<?xml version="1.0" encoding="UTF-8" standalone="no"?>
<!-- Created with Inkscape (http://www.inkscape.org/) -->

<svg
   xmlns:dc="http://purl.org/dc/elements/1.1/"
   xmlns:cc="http://creativecommons.org/ns#"
   xmlns:rdf="http://www.w3.org/1999/02/22-rdf-syntax-ns#"
   xmlns:svg="http://www.w3.org/2000/svg"
   xmlns="http://www.w3.org/2000/svg"
   xmlns:sodipodi="http://sodipodi.sourceforge.net/DTD/sodipodi-0.dtd"
   xmlns:inkscape="http://www.inkscape.org/namespaces/inkscape"
   width="22"
   height="22"
   id="svg2"
   version="1.1"
   inkscape:version="0.49 r12742"
   viewBox="0 0 22 22"
   sodipodi:docname="document-save.svg">
  <defs
     id="defs4" />
  <sodipodi:namedview
     id="base"
     pagecolor="#ffffff"
     bordercolor="#666666"
     borderopacity="1.0"
     inkscape:pageopacity="0.0"
     inkscape:pageshadow="2"
     inkscape:zoom="22.4"
     inkscape:cx="10.659982"
     inkscape:cy="11.398149"
     inkscape:document-units="px"
     inkscape:current-layer="layer1"
     showgrid="true"
     inkscape:showpageshadow="false"
     borderlayer="true"
     inkscape:window-width="1366"
     inkscape:window-height="718"
     inkscape:window-x="-2"
     inkscape:window-y="23"
     inkscape:window-maximized="1"
     units="px"
     showguides="true">
    <sodipodi:guide
       position="2,20.000017"
       orientation="18,0"
       id="guide4085" />
    <sodipodi:guide
       position="2,2.0000174"
       orientation="0,18"
       id="guide4087" />
    <sodipodi:guide
       position="20,2.0000174"
       orientation="-18,0"
       id="guide4089" />
    <sodipodi:guide
       position="20,20.000017"
       orientation="0,-18"
       id="guide4091" />
    <sodipodi:guide
       position="3,19.000017"
       orientation="16,0"
       id="guide4093" />
    <sodipodi:guide
       position="3,3.0000174"
       orientation="0,16"
       id="guide4095" />
    <sodipodi:guide
       position="19,3.0000174"
       orientation="-16,0"
       id="guide4097" />
    <sodipodi:guide
       position="19,19.000017"
       orientation="0,-16"
       id="guide4099" />
    <inkscape:grid
       type="xygrid"
       id="grid4101" />
    <sodipodi:guide
       position="15,19.000017"
       orientation="4,0"
       id="guide4088" />
    <sodipodi:guide
       position="15,15.000017"
       orientation="0,4"
       id="guide4090" />
    <sodipodi:guide
       position="19,15.000017"
       orientation="-4,0"
       id="guide4092" />
    <sodipodi:guide
       position="19,19.000017"
       orientation="0,-4"
       id="guide4094" />
  </sodipodi:namedview>
  <metadata
     id="metadata7">
    <rdf:RDF>
      <cc:Work
         rdf:about="">
        <dc:format>image/svg+xml</dc:format>
        <dc:type
           rdf:resource="http://purl.org/dc/dcmitype/StillImage" />
        <dc:title />
      </cc:Work>
    </rdf:RDF>
  </metadata>
  <g
     inkscape:label="Capa 1"
     inkscape:groupmode="layer"
     id="layer1"
     transform="translate(0,-1030.3622)">
    <path
       style="fill:#4d4d4d;fill-opacity:1;stroke:none"
       d="M 3 3 L 3 4 L 3 19 L 4 19 L 19 19 L 19 18 L 19 7 L 19 6.3007812 L 18.992188 6.3007812 L 19 6.2929688 L 15.707031 3 L 15.699219 3.0078125 L 15.699219 3 L 15 3 L 3 3 z M 4 4 L 7 4 L 7 8 L 7 9 L 15 9 L 15 8 L 15 4 L 15.292969 4 L 18 6.7070312 L 18 7 L 18 18 L 16 18 L 16 11 L 15 11 L 7 11 L 6 11 L 6 18 L 4 18 L 4 4 z M 8 4 L 11.900391 4 L 11.900391 8 L 8 8 L 8 4 z M 7 12 L 15 12 L 15 18 L 7 18 L 7 12 z "
       transform="translate(0,1030.3622)"
       id="rect4126" />
  </g>
</svg>
