<?xml version="1.0" encoding="UTF-8" standalone="no"?>
<!-- Created with Inkscape (http://www.inkscape.org/) -->

<svg
   xmlns:dc="http://purl.org/dc/elements/1.1/"
   xmlns:cc="http://creativecommons.org/ns#"
   xmlns:rdf="http://www.w3.org/1999/02/22-rdf-syntax-ns#"
   xmlns:svg="http://www.w3.org/2000/svg"
   xmlns="http://www.w3.org/2000/svg"
   xmlns:sodipodi="http://sodipodi.sourceforge.net/DTD/sodipodi-0.dtd"
   xmlns:inkscape="http://www.inkscape.org/namespaces/inkscape"
   width="22"
   height="22"
   id="svg2"
   version="1.1"
   inkscape:version="0.48+devel r"
   sodipodi:docname="help-faq.svg">
  <defs
     id="defs4" />
  <sodipodi:namedview
     id="base"
     pagecolor="#ffffff"
     bordercolor="#666666"
     borderopacity="1.0"
     inkscape:pageopacity="0.0"
     inkscape:pageshadow="2"
     inkscape:zoom="22.627417"
     inkscape:cx="3.2222743"
     inkscape:cy="9.2370822"
     inkscape:document-units="px"
     inkscape:current-layer="g846"
     showgrid="true"
     inkscape:window-width="1366"
     inkscape:window-height="718"
     inkscape:window-x="-2"
     inkscape:window-y="23"
     inkscape:window-maximized="1"
     inkscape:showpageshadow="false"
     showguides="false">
    <inkscape:grid
       type="xygrid"
       id="grid4108" />
    <sodipodi:guide
       position="1.9999987,20.000051"
       orientation="18,0"
       id="guide4114" />
    <sodipodi:guide
       position="1.9999987,2.0000511"
       orientation="0,18"
       id="guide4116" />
    <sodipodi:guide
       position="19.999999,2.0000511"
       orientation="-18,0"
       id="guide4118" />
    <sodipodi:guide
       position="19.999999,20.000051"
       orientation="0,-18"
       id="guide4120" />
    <sodipodi:guide
       position="2.9999987,19.000051"
       orientation="16,0"
       id="guide4122" />
    <sodipodi:guide
       position="2.9999987,3.0000511"
       orientation="0,16"
       id="guide4124" />
    <sodipodi:guide
       position="18.999999,3.0000511"
       orientation="-16,0"
       id="guide4126" />
    <sodipodi:guide
       position="18.999999,19.000051"
       orientation="0,-16"
       id="guide4128" />
  </sodipodi:namedview>
  <metadata
     id="metadata7">
    <rdf:RDF>
      <cc:Work
         rdf:about="">
        <dc:format>image/svg+xml</dc:format>
        <dc:type
           rdf:resource="http://purl.org/dc/dcmitype/StillImage" />
        <dc:title></dc:title>
      </cc:Work>
    </rdf:RDF>
  </metadata>
  <g
     inkscape:label="Capa 1"
     inkscape:groupmode="layer"
     id="layer1"
     transform="translate(0,-1030.3622)">
    <g
       id="g846"
       transform="translate(-61.043672,-14.648105)">
      <path
         style="opacity:1;fill:#4d4d4d;fill-opacity:1;stroke:none"
         d="M 11 3 C 6.568 3 3 6.568 3 11 C 3 15.432 6.568 19 11 19 C 15.432 19 19 15.432 19 11 C 19 6.568 15.432 3 11 3 z M 11 4 C 14.878 4 18 7.122 18 11 C 18 14.878 14.878 18 11 18 C 7.122 18 4 14.878 4 11 C 4 7.122 7.122 4 11 4 z "
         id="rect4130"
         transform="translate(61.043672,1045.0103)" />
      <rect
         style="opacity:1;fill:#4d4d4d;fill-opacity:1;stroke:none"
         id="rect4302"
         width="2"
         height="2"
         x="71.043671"
         y="1059.0105" />
      <path
         style="opacity:1;fill:#4d4d4d;fill-opacity:1;stroke:none"
         d="m 69.04924,1051.0103 c 0,0 -1.09863,0.01 -0.999205,1 l 0,1 0,2 1.998409,0 0,-2 2.995626,0 c 0.999204,0 0.999204,1 0.999204,1 l 0,1 c -1.99841,0 -2.999602,1 -2.999602,2 l 0,1 2.002386,0 0,-1 c 2.997614,0 2.997614,-2 2.997614,-3 0,-1 0,-3 -1.998409,-3 l -3.996819,0 z"
         id="rect4304"
         inkscape:connector-curvature="0"
         sodipodi:nodetypes="cscccccccscccsscc" />
    </g>
  </g>
</svg>
